<?xml version="1.0" encoding="UTF-8"?>
<!DOCTYPE svg PUBLIC "-//W3C//DTD SVG 1.1//EN" "http://www.w3.org/Graphics/SVG/1.1/DTD/svg11.dtd">
<!-- Creator: CorelDRAW -->
<svg xmlns="http://www.w3.org/2000/svg" xml:space="preserve" width="50.3848mm" height="16.2736mm" version="1.1" style="shape-rendering:geometricPrecision; text-rendering:geometricPrecision; image-rendering:optimizeQuality; fill-rule:evenodd; clip-rule:evenodd"
viewBox="0 0 4444.52 1435.52"
 xmlns:xlink="http://www.w3.org/1999/xlink"
 xmlns:xodm="http://www.corel.com/coreldraw/odm/2003">
 <defs>
  <style type="text/css">
   <![CDATA[
    .fil0 {fill:white}
   ]]>
  </style>
 </defs>
 <g id="Camada_x0020_1">
  <metadata id="CorelCorpID_0Corel-Layer"/>
  <g id="_2072954818192">
   <path class="fil0" d="M668.62 97.74c369.27,0 668.62,299.47 668.62,668.89 0,369.42 -299.35,668.89 -668.62,668.89 -369.27,0 -668.62,-299.47 -668.62,-668.89 0,-369.42 299.35,-668.89 668.62,-668.89zm0 207.98c254.45,0 460.73,206.36 460.73,460.91 0,254.56 -206.27,460.91 -460.73,460.91 -254.45,0 -460.73,-206.35 -460.73,-460.91 0,-254.55 206.27,-460.91 460.73,-460.91z"/>
   <path class="fil0" d="M2980.14 1400.48l-1615.77 3 814.6 -1403.48 801.17 1400.48zm-388.42 -229.74l-838.93 1.56 422.95 -728.71 415.98 727.14z"/>
   <path class="fil0" d="M3196.83 161.12l1247.69 0 0 1242.36 -1247.69 0 0 -1242.36zm205.16 204.29l837.36 0 0 833.78 -837.36 0 0 -833.78z"/>
  </g>
 </g>
</svg>
